# AST/ASF file generated using VICON BodyLanguage
# -----------------------------------------------
:version 1.10
:name VICON
:units
  mass 1.0
  length 0.45
  angle deg
:documentation
   .ast/.asf automatically generated from VICON data using
   VICON BodyBuilder and BodyLanguage model FoxedUp or BRILLIANT.MOD
:root
   order TX TY TZ RX RY RZ
   axis XYZ
   position 0 0 0  
   orientation 0 0 0 
:bonedata
  begin
     id 1 
     name lhipjoint
     direction 0.521689 -0.742065 0.420928 
     length 2.47002 
     axis 0 0 0  XYZ
  end
  begin
     id 2 
     name lfemur
     direction 0.34202 -0.939693 0  
     length 7.24654  
     axis 0 0 20  XYZ
    dof rx ry rz
    limits (-160.0 20.0)
           (-70.0 70.0)
           (-60.0 70.0)
  end
  begin
     id 3 
     name ltibia
     direction 0.34202 -0.939693 0   
     length 8.04849   
     axis 0 0 20   XYZ
    dof rx
    limits (-10.0 170.0)
  end
  begin
     id 4 
     name lfoot
     direction 0.0745411 -0.2048 0.975961   
     length 1.72367   
     axis -90 7.62852e-016 20   XYZ
    dof rx rz
    limits (-45.0 90.0)
           (-70.0 20.0)
  end
  begin
     id 5 
     name ltoes
     direction 1.53556e-011 -4.21901e-011 1   
     length 0.87311   
     axis -90 7.62852e-016 20   XYZ
    dof rx
    limits (-90.0 20.0)
  end
  begin
     id 6 
     name rhipjoint
     direction -0.52849 -0.738415 0.418857   
     length 2.48223  
     axis 0 0 0  XYZ 
  end
  begin
     id 7 
     name rfemur
     direction -0.34202 -0.939693 0   
     length 7.15571   
     axis 0 0 -20   XYZ
    dof rx ry rz
    limits (-160.0 20.0)
           (-70.0 70.0)
           (-70.0 60.0)
  end
  begin
     id 8 
     name rtibia
     direction -0.34202 -0.939693 0   
     length 7.81659   
     axis 0 0 -20   XYZ
    dof rx
    limits (-10.0 170.0)
 end
 begin
     id 9 
     name rfoot
     direction -0.0917348 -0.252039 0.963359   
     length 1.84382  
     axis -90 -7.62852e-016 -20   XYZ
    dof rx rz
    limits (-45.0 90.0)
           (-20.0 70.0)
  end
  begin
     id 10 
     name rtoes
     direction -1.53551e-011 -4.21879e-011 1   
     length 0.927771   
     axis -90 -7.62852e-016 -20   XYZ
    dof rx
    limits (-90.0 20.0)
  end
  begin
     id 11 
     name lowerback
     direction 0.00583058 0.999822 0.0179296   
     length 2.1429   
     axis 0 0 0   XYZ
    dof rx ry rz
    limits (-20.0 45.0)
           (-30.0 30.0)
           (-30.0 30.0)
  end
  begin
     id 12 
     name upperback
     direction -0.0137999 0.999752 -0.0175071   
     length 2.14252   
     axis 0 0 0   XYZ
    dof rx ry rz
    limits (-20.0 45.0)
           (-30.0 30.0)
           (-30.0 30.0)
  end
  begin
     id 13 
     name thorax
     direction -0.0158036 0.99955 -0.0254909   
     length 2.1383   
     axis 0 0 0   XYZ
    dof rx ry rz
    limits (-20.0 45.0)
           (-30.0 30.0)
           (-30.0 30.0)
  end
  begin
     id 14 
     name lowerneck
     direction -0.0101179 0.999403 -0.0330262   
     length 1.65808   
     axis 0 0 0   XYZ
    dof rx ry rz
    limits (-20.0 45.0)
           (-30.0 30.0)
           (-30.0 30.0)
  end
  begin
     id 15 
     name upperneck
     direction 0.0497734 0.995978 -0.074501   
     length 1.5897   
     axis 0 0 0   XYZ
    dof rx ry rz
    limits (-20.0 45.0)
           (-30.0 30.0)
           (-30.0 30.0)
  end
  begin
     id 16
     name head
     direction 0.0189524 0.999519 -0.0245438  
     length 1.74024  
     axis 0 0 0   XYZ
    dof rx ry rz
    limits (-20.0 45.0)
           (-30.0 30.0)
           (-30.0 30.0)
  end
  begin
     id 17 
     name lclavicle
     direction 0.945604 0.324422 0.0241537  
     length 3.59089  
     axis 0 0 0   XYZ
    dof ry rz
    limits (-20.0 10.0)
           (0.0 20.0)
  end
  begin
     id 18 
     name lhumerus
     direction 1 -4.48964e-011 -2.63524e-027   
     length 5.2391   
     axis 180 -30 -90   XYZ
    dof rx ry rz
    limits (-60.0 90.0)
           (-90.0 90.0)
           (-90.0 90.0)
  end
  begin
     id 19
     name lradius
     direction 1 -4.48969e-011 3.86978e-028   
     length 3.31467   
     axis 180 -30 -90   XYZ
    dof rx
    limits (-10.0 170.0)
  end
  begin
     id 20
     name lwrist
     direction 1 -4.48963e-011 7.20928e-028   
     length 1.65734   
     axis -5.52449e-016 90 90   XYZ
    dof ry
    limits (-180.0 0.0)
 end
  begin
     id 21 
     name lhand
     direction 1 -4.48964e-011 1.44186e-027   
     length 0.9659   
     axis -9.20027e-016 90 90   XYZ
    dof rx rz
    limits (-90.0 90.0)
           (-45.0 45.0)
  end
  begin
     id 22 
     name lfingers
     direction 1 -4.48965e-011 2.88371e-027   
     length 0.778733   
     axis -1.84005e-015 90 90   XYZ
    dof rx
    limits (0.0 90.0)
  end
  begin
     id 23
     name lthumb
     direction 0.707107 -6.34931e-011 0.707107   
     length 1.11811   
     axis -90 45 2.85299e-015   XYZ
    dof rx rz
    limits (-45.0 45.0)
           (-45.0 45.0)
  end
  begin
     id 24 
     name rclavicle
     direction -0.923762 0.370785 0.0958234   
     length 3.54196  
     axis 0 0 0   XYZ 
    dof ry rz
    limits (-10.0 20.0)
           (-20.0 0.0)
  end
  begin
     id 25 
     name rhumerus
     direction -1 -4.48966e-011 1.18702e-017  
     length 5.30252   
     axis 180 30 90   XYZ
    dof rx ry rz
    limits (-90.0 60.0)
           (-90.0 90.0)
           (-90.0 90.0)
  end
  begin
     id 26 
     name rradius
     direction -1 -4.48966e-011 4.46736e-027   
     length 3.67875   
     axis 180 30 90   XYZ
    dof rx
    limits (-10.0 170.0)
  end
  begin
     id 27 
     name rwrist
     direction -1 -4.48966e-011 7.20928e-028   
     length 1.83937   
     axis -5.52449e-016 -90 -90   XYZ
    dof ry
    limits (-180.0 0.0)
  end
  begin
     id 28
     name rhand
     direction -1 -4.48973e-011 1.44186e-027   
     length 0.594811   
     axis -9.20027e-016 -90 -90   XYZ
    dof rx rz
    limits (-90.0 90.0)
           (-45.0 45.0)
  end
  begin
     id 29
     name rfingers
     direction -1 -4.48963e-011 2.88371e-027   
     length 0.479552   
     axis -1.84005e-015 -90 -90   XYZ
    dof rx
    limits (0.0 90.0)
  end
  begin
     id 30
     name rthumb
     direction -0.707107 -6.34932e-011 0.707107   
     length 0.688544   
     axis -90 -45 -2.85299e-015   XYZ
    dof rx rz
    limits (-45.0 45.0)
           (-45.0 45.0)
  end
:hierarchy
  begin
    root lhipjoint rhipjoint lowerback
    lhipjoint lfemur
    lfemur ltibia
    ltibia lfoot
    lfoot ltoes
    rhipjoint rfemur
    rfemur rtibia
    rtibia rfoot
    rfoot rtoes
    lowerback upperback
    upperback thorax
    thorax lowerneck lclavicle rclavicle
    lowerneck upperneck
    upperneck head
    lclavicle lhumerus
    lhumerus lradius
    lradius lwrist
    lwrist lhand lthumb
    lhand lfingers
    rclavicle rhumerus
    rhumerus rradius
    rradius rwrist
    rwrist rhand rthumb
    rhand rfingers
  end

#!OML:ASF E:\acrobat2\Project_11_07_03\Capture day 1\Session 1\Acrobat.ASF
:FULLY-SPECIFIED
:DEGREES
527
root 4.75671 18.5007 25.5716 -546.617 -44.4759 -523.541
lowerback 7.81949 2.4802 4.70518
upperback 4.81793 3.31841 -1.38181
thorax 0.982425 1.67479 -4.28798
lowerneck -1.38293 11.0584 4.4251
upperneck -1.1949 14.6822 -3.12768
head 0.428221 7.32565 -1.49644
rclavicle -4.13472e-014 7.63333e-014
rhumerus -43.1505 -3.47079 -26.4784
rradius 28.6803
rwrist -21.3089
rhand -15.0013 -43.9768
rfingers 7.12502
rthumb 11.1635 -73.6599
lclavicle -4.13472e-014 7.63333e-014
lhumerus 21.1284 -35.9076 44.5073
lradius 38.1454
lwrist 10.7086
lhand -31.7414 -28.8309
lfingers 7.12502
lthumb -4.99905 1.09009
rfemur -18.4051 -20.4062 1.0094
rtibia 47.9407
rfoot 3.93479 -10.5274
rtoes 2.42296
lfemur -11.9735 3.679 9.68528
ltibia 37.7637
lfoot -17.3619 1.97754
ltoes 23.7368
528
root 4.6005 18.4683 25.6823 -546.337 -42.1457 -524.094
lowerback 6.76336 2.6423 4.12634
upperback 4.92084 3.46116 -0.938012
thorax 1.6179 1.74404 -3.45353
lowerneck -1.51 11.3546 4.33018
upperneck -1.19391 15.0763 -3.45231
head 0.484214 7.5227 -1.56073
rclavicle 7.95139e-015 -1.59028e-015
rhumerus -41.325 -2.68964 -25.0289
rradius 29.7201
rwrist -22.7531
rhand -14.5246 -44.3637
rfingers 7.12502
rthumb 11.6232 -74.0213
lclavicle 7.95139e-015 -1.59028e-015
lhumerus 20.3324 -36.0244 47.1006
lradius 38.1761
lwrist 11.2017
lhand -31.8247 -28.8083
lfingers 7.12502
lthumb -5.07943 1.11085
rfemur -18.1408 -20.953 0.346587
rtibia 47.8118
rfoot 4.40908 -11.0924
rtoes 2.74287
lfemur -9.80088 2.4532 9.62322
ltibia 34.9554
lfoot -19.2024 3.39913
ltoes 25.7587
529
root 4.44817 18.4235 25.7965 -546.1 -39.8567 -524.523
lowerback 6.55865 2.56523 5.02865
upperback 4.51729 3.43009 -1.5622
thorax 1.41165 1.76001 -4.60676
lowerneck -0.920423 11.6676 5.36335
upperneck -1.7579 15.4984 -3.64881
head 0.326129 7.72952 -1.82285
rclavicle 3.37934e-014 1.59028e-015
rhumerus -40.3463 -2.28298 -24.8949
rradius 30.7584
rwrist -23.4182
rhand -14.2609 -44.571
rfingers 7.12502
rthumb 11.8775 -74.2142
lclavicle 3.37934e-014 1.59028e-015
lhumerus 19.7339 -37.5661 47.2933
lradius 38.8065
lwrist 13.3804
lhand -32.4698 -29.0071
lfingers 7.12502
lthumb -5.70232 0.896191
rfemur -18.032 -21.4432 -0.231027
rtibia 47.7295
rfoot 4.64792 -11.6956
rtoes 2.3124
lfemur -7.91398 1.19122 9.50838
ltibia 32.3557
lfoot -20.6795 4.09671
ltoes 25.999
530
root 4.29919 18.364 25.9086 -545.92 -37.6985 -524.839
lowerback 6.42584 2.48017 5.80094
upperback 4.08658 3.38372 -1.97349
thorax 1.11068 1.75247 -5.4755
lowerneck 0.141526 11.9445 6.43847
upperneck -2.74394 15.9108 -4.3184
head 0.00493181 7.93238 -2.29164
rclavicle 2.14687e-014 -3.81667e-014
rhumerus -39.3995 -1.64788 -24.5567
rradius 31.8556
rwrist -24.2054
rhand -13.7097 -44.1213
rfingers 7.12502
rthumb 12.409 -73.733
lclavicle 2.14687e-014 -3.81667e-014
lhumerus 18.9185 -38.2687 48.1789
lradius 39.0368
lwrist 13.5274
lhand -32.1331 -28.6489
lfingers 7.12502
lthumb -5.37719 1.26291
rfemur -18.0645 -21.9311 -0.72942
rtibia 47.8294
rfoot 5.1104 -12.1031
rtoes 2.4455
lfemur -6.29305 0.136376 9.4004
ltibia 29.9787
lfoot -21.9685 3.51864
ltoes 23.3892
531
root 4.15674 18.29 26.0198 -545.66 -35.4918 -525.073
lowerback 6.04094 2.4689 6.2757
upperback 3.76142 3.40082 -2.07442
thorax 1.02623 1.77058 -5.83999
lowerneck 0.45233 12.239 6.99733
upperneck -3.02267 16.3209 -4.64095
head -0.0374113 8.13476 -2.49782
rclavicle 1.66979e-014 9.22361e-014
rhumerus -37.9576 -1.01416 -23.8058
rradius 32.77
rwrist -25.1749
rhand -13.0049 -43.8634
rfingers 7.12502
rthumb 13.0885 -73.4327
lclavicle 1.66979e-014 9.22361e-014
lhumerus 18.2741 -38.7993 49.3662
lradius 39.0827
lwrist 13.7657
lhand -32.0631 -28.4154
lfingers 7.12502
lthumb -5.30968 1.49803
rfemur -18.4386 -22.2404 -1.02224
rtibia 48.0722
rfoot 6.10978 -12.5864
rtoes 2.77737
lfemur -4.96571 -0.283329 9.36291
ltibia 28.1193
lfoot -23.4793 1.48643
ltoes 21.1541
